<svg xmlns="http://www.w3.org/2000/svg" viewBox="0 0 252 144"><defs><style>.cls-1{font-size:42.12px;font-family:FredokaOne-Regular, Fredoka One;}.cls-1,.cls-4{fill:#fff;}.cls-2{letter-spacing:-0.12em;}.cls-3{fill:none;}</style></defs><title>Artboard 1</title><g id="Layer_3" data-name="Layer 3"><text class="cls-1" transform="translate(94.33 88.24)"><tspan class="cls-2">T</tspan><tspan x="25.73" y="0">a</tspan><tspan class="cls-2" x="50.83" y="0">pT</tspan><tspan x="96.02" y="0">ap</tspan></text></g><g id="Layer_1" data-name="Layer 1"><path class="cls-3" d="M66.27,55.72a9.31,9.31,0,1,0,5.53,12A9.31,9.31,0,0,0,66.27,55.72Z"/><path class="cls-4" d="M39.8,56.34A24,24,0,0,1,47,46.13,21.52,21.52,0,0,0,17,72.62C20.32,81.78,37.92,93.15,46,98,42.43,87.52,36.16,66.25,39.8,56.34Z"/><path class="cls-4" d="M70.17,45.09a21.52,21.52,0,0,0-27.61,12.8c-4.37,11.92,7.38,42.37,7.38,42.37S78.26,85.51,83,72.7A21.52,21.52,0,0,0,70.17,45.09ZM71.8,67.67a9.31,9.31,0,1,1-5.53-12A9.3,9.3,0,0,1,71.8,67.67Z"/></g></svg>