<svg id="Layer_1" data-name="Layer 1" xmlns="http://www.w3.org/2000/svg" viewBox="0 0 69.34 56.88"><defs><style>.cls-1{fill:none;}.cls-2{fill:#fff;}</style></defs><title>Artboard 1</title><path class="cls-1" d="M51,12.16a9.31,9.31,0,1,0,5.53,12A9.31,9.31,0,0,0,51,12.16Z"/><path class="cls-2" d="M24.48,12.78A24.11,24.11,0,0,1,31.73,2.57,21.52,21.52,0,0,0,1.67,29.06c3.33,9.16,20.94,20.53,29,25.33C27.12,44,20.85,22.69,24.48,12.78Z"/><path class="cls-2" d="M54.85,1.53a21.51,21.51,0,0,0-27.6,12.8C22.87,26.25,34.63,56.7,34.63,56.7S63,42,67.65,29.14A21.52,21.52,0,0,0,54.85,1.53Zm1.64,22.58A9.31,9.31,0,1,1,51,12.16,9.31,9.31,0,0,1,56.49,24.11Z"/></svg>